<svg width="1000" height="126" version="1.1" xmlns="http://www.w3.org/2000/svg" desc="Created with imagetracer.js version 1.2.6" ><path fill="rgb(118,212,252)" stroke="rgb(118,212,252)" stroke-width="1" opacity="0.28627450980392155" d="M 79.5 17 L 83 17.5 L 79.5 18 L 79.5 17 Z " /><path fill="rgb(118,212,252)" stroke="rgb(118,212,252)" stroke-width="1" opacity="0.28627450980392155" d="M 90.5 17 L 94 17.5 L 90.5 18 L 90.5 17 Z " /><path fill="rgb(118,212,252)" stroke="rgb(118,212,252)" stroke-width="1" opacity="0.28627450980392155" d="M 844.5 17 L 844 18.5 L 842.5 23 L 842 20.5 L 844.5 17 Z " /><path fill="rgb(118,212,252)" stroke="rgb(118,212,252)" stroke-width="1" opacity="0.28627450980392155" d="M 847.5 17 Q 850.5 17.5 850 21.5 L 849 21.5 L 847.5 17 Z " /><path fill="rgb(118,212,252)" stroke="rgb(118,212,252)" stroke-width="1" opacity="0.28627450980392155" d="M 1.5 19 L 2 25.5 L 1 25.5 L 1.5 19 Z " /><path fill="rgb(118,212,252)" stroke="rgb(118,212,252)" stroke-width="1" opacity="0.28627450980392155" d="M 52.5 19 L 53 25.5 L 52 25.5 L 52.5 19 Z " /><path fill="rgb(118,212,252)" stroke="rgb(118,212,252)" stroke-width="1" opacity="0.28627450980392155" d="M 165.5 19 L 169 19.5 L 165.5 20 L 165.5 19 Z " /><path fill="rgb(118,212,252)" stroke="rgb(118,212,252)" stroke-width="1" opacity="0.28627450980392155" d="M 199.5 19 L 200 107 L 245 107.5 L 199 108 L 199.5 19 Z " /><path fill="rgb(118,212,252)" stroke="rgb(118,212,252)" stroke-width="1" opacity="0.28627450980392155" d="M 295.5 19 L 302 28.5 L 300 27.5 L 295.5 19 Z " /><path fill="rgb(118,212,252)" stroke="rgb(118,212,252)" stroke-width="1" opacity="0.28627450980392155" d="M 342.5 19 L 343 93.5 L 342 93.5 L 337 85.5 L 339 86.5 L 341.5 91 L 342.5 19 Z " /><path fill="rgb(118,212,252)" stroke="rgb(118,212,252)" stroke-width="1" opacity="0.28627450980392155" d="M 369.5 19 L 370 107 L 412 107.5 L 369 108 L 369.5 19 Z " /><path fill="rgb(118,212,252)" stroke="rgb(118,212,252)" stroke-width="1" opacity="0.28627450980392155" d="M 71.5 20 L 70.5 22 L 64 27.5 L 62.5 31 L 62 29.5 L 69.5 21 L 71.5 20 Z " /><path fill="rgb(118,212,252)" stroke="rgb(118,212,252)" stroke-width="1" opacity="0.28627450980392155" d="M 103.5 21 L 108.5 27 L 103.5 21 Z " /><path fill="rgb(118,212,252)" stroke="rgb(118,212,252)" stroke-width="1" opacity="0.28627450980392155" d="M 173.5 21 L 181 26.5 L 182 28.5 L 180 27.5 L 177.5 24 Q 172.8 23.2 173.5 21 Z " /><path fill="rgb(118,212,252)" stroke="rgb(118,212,252)" stroke-width="1" opacity="0.28627450980392155" d="M 850.5 23 L 851 102.5 L 850 102.5 L 850.5 23 Z " /><path fill="rgb(118,212,252)" stroke="rgb(118,212,252)" stroke-width="1" opacity="0.28627450980392155" d="M 81.5 24 L 85 24.5 L 81.5 25 L 81.5 24 Z " /><path fill="rgb(118,212,252)" stroke="rgb(118,212,252)" stroke-width="1" opacity="0.28627450980392155" d="M 88.5 24 L 93 24.5 L 88.5 25 L 88.5 24 Z " /><path fill="rgb(118,212,252)" stroke="rgb(118,212,252)" stroke-width="1" opacity="0.28627450980392155" d="M 77.5 25 L 79 25.5 L 73.5 29 L 75.5 26 L 77.5 25 Z " /><path fill="rgb(118,212,252)" stroke="rgb(118,212,252)" stroke-width="1" opacity="0.28627450980392155" d="M 94.5 25 L 103 30.5 L 104 32.5 L 102 31.5 L 100.5 29 L 94.5 26 L 94.5 25 Z " /><path fill="rgb(118,212,252)" stroke="rgb(118,212,252)" stroke-width="1" opacity="0.28627450980392155" d="M 253.5 25 L 257 25.5 L 253.5 26 L 253.5 25 Z " /><path fill="rgb(118,212,252)" stroke="rgb(118,212,252)" stroke-width="1" opacity="0.28627450980392155" d="M 30.5 26 L 31 108 L 23 107.5 L 30 107 L 30.5 26 Z " /><path fill="rgb(118,212,252)" stroke="rgb(118,212,252)" stroke-width="1" opacity="0.28627450980392155" d="M 138.5 26 L 139 69 L 165 69.5 L 138 70 L 138.5 26 Z " /><path fill="rgb(118,212,252)" stroke="rgb(118,212,252)" stroke-width="1" opacity="0.28627450980392155" d="M 164.5 26 L 167 26.5 L 164.5 27 L 164.5 26 Z " /><path fill="rgb(118,212,252)" stroke="rgb(118,212,252)" stroke-width="1" opacity="0.28627450980392155" d="M 261.5 26 L 262 107 L 269 107.5 L 261 108 L 261.5 26 Z " /><path fill="rgb(118,212,252)" stroke="rgb(118,212,252)" stroke-width="1" opacity="0.28627450980392155" d="M 168.5 27 L 175 31.5 L 171.5 29 Q 167.8 28.7 168.5 27 Z " /><path fill="rgb(118,212,252)" stroke="rgb(118,212,252)" stroke-width="1" opacity="0.28627450980392155" d="M 109.5 28 L 111 30.5 L 110 30.5 L 109.5 28 Z " /><path fill="rgb(118,212,252)" stroke="rgb(118,212,252)" stroke-width="1" opacity="0.28627450980392155" d="M 71.5 29 L 72 30.5 L 68.5 36 L 68 34.5 L 71.5 29 Z " /><path fill="rgb(118,212,252)" stroke="rgb(118,212,252)" stroke-width="1" opacity="0.28627450980392155" d="M 302.5 30 L 309 39.5 L 307 38.5 L 302.5 30 Z " /><path fill="rgb(118,212,252)" stroke="rgb(118,212,252)" stroke-width="1" opacity="0.28627450980392155" d="M 295.5 33 L 300 39.5 L 298 38.5 L 296.5 36 L 296 108 L 288 107.5 L 295 107 L 295.5 33 Z " /><path fill="rgb(118,212,252)" stroke="rgb(118,212,252)" stroke-width="1" opacity="0.28627450980392155" d="M 184.5 34 L 185 36.5 L 184 36.5 L 184.5 34 Z " /><path fill="rgb(118,212,252)" stroke="rgb(118,212,252)" stroke-width="1" opacity="0.28627450980392155" d="M 60.5 35 L 61 38.5 L 60 38.5 L 60.5 35 Z " /><path fill="rgb(118,212,252)" stroke="rgb(118,212,252)" stroke-width="1" opacity="0.28627450980392155" d="M 112.5 35 L 113 37.5 L 112 37.5 L 112.5 35 Z " /><path fill="rgb(118,212,252)" stroke="rgb(118,212,252)" stroke-width="1" opacity="0.28627450980392155" d="M 105.5 37 L 106 41.5 L 105 41.5 L 105.5 37 Z " /><path fill="rgb(118,212,252)" stroke="rgb(118,212,252)" stroke-width="1" opacity="0.28627450980392155" d="M 177.5 37 L 178 39.5 L 177 39.5 L 177.5 37 Z " /><path fill="rgb(118,212,252)" stroke="rgb(118,212,252)" stroke-width="1" opacity="0.28627450980392155" d="M 67.5 38 L 68 87.5 L 67 87.5 L 67.5 38 Z " /><path fill="rgb(118,212,252)" stroke="rgb(118,212,252)" stroke-width="1" opacity="0.28627450980392155" d="M 185.5 38 L 186 43.5 L 185 43.5 L 185.5 38 Z " /><path fill="rgb(118,212,252)" stroke="rgb(118,212,252)" stroke-width="1" opacity="0.28627450980392155" d="M 300.5 41 L 301.5 43 L 300.5 41 Z " /><path fill="rgb(118,212,252)" stroke="rgb(118,212,252)" stroke-width="1" opacity="0.28627450980392155" d="M 309.5 41 L 316 50.5 L 314 49.5 L 309.5 41 Z " /><path fill="rgb(118,212,252)" stroke="rgb(118,212,252)" stroke-width="1" opacity="0.28627450980392155" d="M 178.5 44 L 179 50.5 L 178 50.5 L 178.5 44 Z " /><path fill="rgb(118,212,252)" stroke="rgb(118,212,252)" stroke-width="1" opacity="0.28627450980392155" d="M 302.5 44 L 307 50.5 L 305 49.5 L 302.5 44 Z " /><path fill="rgb(118,212,252)" stroke="rgb(118,212,252)" stroke-width="1" opacity="0.28627450980392155" d="M 185.5 49 L 186 56.5 L 185 56.5 L 185.5 49 Z " /><path fill="rgb(118,212,252)" stroke="rgb(118,212,252)" stroke-width="1" opacity="0.28627450980392155" d="M 307.5 52 L 308.5 54 L 307.5 52 Z " /><path fill="rgb(118,212,252)" stroke="rgb(118,212,252)" stroke-width="1" opacity="0.28627450980392155" d="M 316.5 52 L 323 61.5 L 321 60.5 L 316.5 52 Z " /><path fill="rgb(118,212,252)" stroke="rgb(118,212,252)" stroke-width="1" opacity="0.28627450980392155" d="M 177.5 55 L 178 58.5 L 177 58.5 L 177.5 55 Z " /><path fill="rgb(118,212,252)" stroke="rgb(118,212,252)" stroke-width="1" opacity="0.28627450980392155" d="M 309.5 55 L 314 61.5 L 312 60.5 L 309.5 55 Z " /><path fill="rgb(118,212,252)" stroke="rgb(118,212,252)" stroke-width="1" opacity="0.28627450980392155" d="M 400.5 55 L 401 57.5 L 400 57.5 L 400.5 55 Z " /><path fill="rgb(118,212,252)" stroke="rgb(118,212,252)" stroke-width="1" opacity="0.28627450980392155" d="M 184.5 59 L 185 61.5 L 184 61.5 L 184.5 59 Z " /><path fill="rgb(118,212,252)" stroke="rgb(118,212,252)" stroke-width="1" opacity="0.28627450980392155" d="M 377.5 62 L 399 62.5 L 377.5 63 L 377.5 62 Z " /><path fill="rgb(118,212,252)" stroke="rgb(118,212,252)" stroke-width="1" opacity="0.28627450980392155" d="M 314.5 63 L 315.5 65 L 314.5 63 Z " /><path fill="rgb(118,212,252)" stroke="rgb(118,212,252)" stroke-width="1" opacity="0.28627450980392155" d="M 323.5 63 L 330 72.5 L 328 71.5 L 323.5 63 Z " /><path fill="rgb(118,212,252)" stroke="rgb(118,212,252)" stroke-width="1" opacity="0.28627450980392155" d="M 174.5 64 L 171.5 68 L 167.5 69 L 167.5 68 Q 172.7 67.7 174.5 64 Z " /><path fill="rgb(118,212,252)" stroke="rgb(118,212,252)" stroke-width="1" opacity="0.28627450980392155" d="M 182.5 66 L 182 67.5 L 176.5 74 L 181 68.5 L 182.5 66 Z " /><path fill="rgb(118,212,252)" stroke="rgb(118,212,252)" stroke-width="1" opacity="0.28627450980392155" d="M 316.5 66 L 321 72.5 L 319 71.5 L 316.5 66 Z " /><path fill="rgb(118,212,252)" stroke="rgb(118,212,252)" stroke-width="1" opacity="0.28627450980392155" d="M 321.5 74 L 322.5 76 L 321.5 74 Z " /><path fill="rgb(118,212,252)" stroke="rgb(118,212,252)" stroke-width="1" opacity="0.28627450980392155" d="M 330.5 74 L 337 83.5 L 335 82.5 L 330.5 74 Z " /><path fill="rgb(118,212,252)" stroke="rgb(118,212,252)" stroke-width="1" opacity="0.28627450980392155" d="M 139.5 76 L 169 76.5 L 139 77 L 139 107.5 L 138.5 108 L 131.5 108 L 131.5 107 Q 137.8 107.8 138 106.5 L 138 77.5 L 139.5 76 Z " /><path fill="rgb(118,212,252)" stroke="rgb(118,212,252)" stroke-width="1" opacity="0.28627450980392155" d="M 323.5 77 L 328 83.5 L 326 82.5 L 323.5 77 Z " /><path fill="rgb(118,212,252)" stroke="rgb(118,212,252)" stroke-width="1" opacity="0.28627450980392155" d="M 105.5 84 L 106 88.5 L 105 88.5 L 105.5 84 Z " /><path fill="rgb(118,212,252)" stroke="rgb(118,212,252)" stroke-width="1" opacity="0.28627450980392155" d="M 328.5 85 L 329.5 87 L 328.5 85 Z " /><path fill="rgb(118,212,252)" stroke="rgb(118,212,252)" stroke-width="1" opacity="0.28627450980392155" d="M 330.5 88 L 335 94.5 L 333 93.5 L 330.5 88 Z " /><path fill="rgb(118,212,252)" stroke="rgb(118,212,252)" stroke-width="1" opacity="0.28627450980392155" d="M 60.5 89 L 61 91.5 L 60 91.5 L 60.5 89 Z " /><path fill="rgb(118,212,252)" stroke="rgb(118,212,252)" stroke-width="1" opacity="0.28627450980392155" d="M 112.5 89 L 113 91.5 L 112 91.5 L 112.5 89 Z " /><path fill="rgb(118,212,252)" stroke="rgb(118,212,252)" stroke-width="1" opacity="0.28627450980392155" d="M 68.5 90 L 75 98.5 L 69 93.5 L 68.5 90 Z " /><path fill="rgb(118,212,252)" stroke="rgb(118,212,252)" stroke-width="1" opacity="0.28627450980392155" d="M 102.5 95 L 100.5 98 L 102.5 95 Z " /><path fill="rgb(118,212,252)" stroke="rgb(118,212,252)" stroke-width="1" opacity="0.28627450980392155" d="M 62.5 96 L 69.5 104 L 72 105.5 L 70.5 105 L 63 98.5 L 62.5 96 Z " /><path fill="rgb(118,212,252)" stroke="rgb(118,212,252)" stroke-width="1" opacity="0.28627450980392155" d="M 110.5 96 L 111 97.5 L 108 102 L 101.5 106 L 102.5 104 L 110 97.5 L 110.5 96 Z " /><path fill="rgb(118,212,252)" stroke="rgb(118,212,252)" stroke-width="1" opacity="0.28627450980392155" d="M 335.5 96 L 336.5 98 L 335.5 96 Z " /><path fill="rgb(118,212,252)" stroke="rgb(118,212,252)" stroke-width="1" opacity="0.28627450980392155" d="M 98.5 98 L 97.5 100 L 94.5 101 L 94.5 100 L 98.5 98 Z " /><path fill="rgb(118,212,252)" stroke="rgb(118,212,252)" stroke-width="1" opacity="0.28627450980392155" d="M 337.5 99 L 342 105.5 L 340 104.5 L 337.5 99 Z " /><path fill="rgb(118,212,252)" stroke="rgb(118,212,252)" stroke-width="1" opacity="0.28627450980392155" d="M 81.5 101 L 85 101.5 L 81.5 102 L 81.5 101 Z " /><path fill="rgb(118,212,252)" stroke="rgb(118,212,252)" stroke-width="1" opacity="0.28627450980392155" d="M 87.5 101 L 92 101.5 L 87.5 102 L 87.5 101 Z " /><path fill="rgb(118,212,252)" stroke="rgb(118,212,252)" stroke-width="1" opacity="0.28627450980392155" d="M 842.5 103 L 845 108.5 L 843 107.5 L 842.5 103 Z " /><path fill="rgb(118,212,252)" stroke="rgb(118,212,252)" stroke-width="1" opacity="0.28627450980392155" d="M 849.5 104 L 850 106.5 L 847 108.5 L 849.5 104 Z " /><path fill="rgb(118,212,252)" stroke="rgb(118,212,252)" stroke-width="1" opacity="0.28627450980392155" d="M 98.5 106 L 100 106.5 L 95.5 108 L 95.5 107 L 98.5 106 Z " /><path fill="rgb(118,212,252)" stroke="rgb(118,212,252)" stroke-width="1" opacity="0.28627450980392155" d="M 342.5 107 L 350 107.5 L 342.5 108 L 342.5 107 Z " /><path fill="rgb(118,212,252)" stroke="rgb(118,212,252)" stroke-width="1" opacity="0.28627450980392155" d="M 79.5 108 L 84 108.5 L 79.5 109 L 79.5 108 Z " /><path fill="rgb(118,212,252)" stroke="rgb(118,212,252)" stroke-width="1" opacity="0.28627450980392155" d="M 90.5 108 L 94 108.5 L 90.5 109 L 90.5 108 Z " /><path fill="rgb(6,23,195)" stroke="rgb(6,23,195)" stroke-width="1" opacity="0.984313725490196" d="M 993.5 0 Q 997.5 -0.5 998 2.5 L 998 5.5 L 877.5 126 Q 872.8 126.8 872 123.5 L 873 119.5 L 991.5 1 L 993.5 0 Z " /><path fill="rgb(6,23,195)" stroke="rgb(6,23,195)" stroke-width="1" opacity="0.984313725490196" d="M 442.5 18 L 458.5 19 L 465 22.5 L 462.5 28 Q 454.5 23 439.5 25 Q 431.1 27.2 427 33.5 L 426 43.5 L 432.5 51 L 466.5 65 L 473 71.5 Q 477.5 77 476 88.5 Q 474.2 98.2 467.5 103 L 456.5 108 L 447.5 108 L 446.5 109 L 431.5 106 L 421 97.5 Q 416.2 93.2 417 85 L 424 85 L 424 88.5 L 431.5 98 Q 438.2 103.8 452.5 102 Q 461.5 100.5 466 94.5 Q 470 90 469 80.5 L 462.5 71 L 427.5 56 L 422 50.5 Q 417.8 45.7 419 35.5 Q 421.1 28.1 426.5 24 L 433.5 20 L 442.5 18 Z " /><path fill="rgb(6,23,195)" stroke="rgb(6,23,195)" stroke-width="1" opacity="0.984313725490196" d="M 492 19 Q 497.4 17.5 499 20.5 L 499 90.5 L 504.5 98 Q 510.5 103.5 523.5 102 Q 531.1 100.1 535 94.5 L 538 87.5 L 538 19 L 543.5 19 L 544 19.5 L 544 91.5 Q 542.2 99.2 536.5 103 L 528.5 107 L 512.5 108 Q 500.5 106 495 97.5 L 492 89.5 L 492 19 Z " /><path fill="rgb(6,23,195)" stroke="rgb(6,23,195)" stroke-width="1" opacity="0.984313725490196" d="M 564 19 L 594.5 19 Q 596 21.5 601.5 20 Q 609.2 21.9 613 27.5 Q 619.1 35.9 618 51.5 L 617 52.5 L 616 63.5 L 608.5 73 Q 605.9 72.2 607 75.5 L 618 106.5 L 611.5 107 L 610 105.5 L 602 79.5 L 599.5 76 L 571.5 76 L 570 77.5 L 570 106.5 L 569.5 107 L 564 107 L 564 19 Z M 570 26 L 570 70 L 599 70 L 604 68 L 608 64 L 611 55 Q 613 40 608 33 L 600 26 L 570 26 Z " /><path fill="rgb(6,23,195)" stroke="rgb(6,23,195)" stroke-width="1" opacity="0.984313725490196" d="M 635 19 L 642 19 L 642 21.5 L 664.5 98 L 687 19 L 694 19 L 694 21.5 L 670 105.5 L 668.5 107 L 660.5 107 L 659 105.5 L 635 19 Z " /><path fill="rgb(6,23,195)" stroke="rgb(6,23,195)" stroke-width="1" opacity="0.984313725490196" d="M 709 19 L 749.5 19 L 750 19.5 L 750 26 L 715 26 L 715 54.5 L 716.5 56 L 739 56 L 736.5 62 L 715 62 L 715 101 L 749.5 101 L 750 101.5 L 750 107 L 709 107 L 709 19 Z " /><path fill="rgb(6,23,195)" stroke="rgb(6,23,195)" stroke-width="1" opacity="0.984313725490196" d="M 765 19 L 770.5 19 L 771 19.5 L 771 51.5 L 774 61.5 L 778.5 66 L 784.5 69 L 796.5 70 L 806.5 67 L 812 61.5 L 813 59.5 L 813 20.5 L 814.5 19 Q 819.9 18.4 820 19.5 L 820 94.5 Q 818.5 102 813.5 106 L 807 108 L 806 103 L 811 99.5 L 813 95.5 L 813 71.5 L 811.5 72 Q 802.5 78 785.5 76 Q 774.5 74 769 66.5 L 765 57.5 L 765 19 Z " /><path fill="rgb(0,0,0)" stroke="rgb(0,0,0)" stroke-width="1" opacity="0" d="M 0 0 L 991 0.5 L 872 119.5 L 871 122.5 L 872 126 L 0.5 126 L 0 125.5 L 0 0 Z M 80 17 L 70 21 Q 62 26 60 36 L 60 92 L 63 99 Q 68 107 80 109 Q 90 110 98 108 L 108 102 L 113 92 L 113 36 L 109 27 Q 102 14 80 17 Z M 845 17 L 842 21 L 842 106 L 843 108 Q 844 110 848 109 L 850 107 L 851 103 L 851 24 L 850 20 Q 849 16 845 17 Z M 438 18 L 427 23 Q 420 27 418 37 L 418 43 L 421 51 L 428 57 Q 439 63 454 67 L 463 72 L 468 80 Q 470 90 465 95 L 454 101 Q 438 103 432 97 Q 426 93 424 87 L 424 84 L 416 84 L 416 89 L 420 98 Q 426 107 439 109 Q 458 111 468 104 L 473 99 L 477 87 L 477 80 L 474 72 L 467 64 L 433 50 L 427 44 Q 426 37 428 34 L 433 29 L 439 26 Q 443 27 445 25 Q 457 25 464 29 L 466 21 L 458 18 L 438 18 Z M 1 19 L 1 26 L 23 26 L 23 27 L 23 108 L 31 108 L 31 108 L 31 26 L 53 26 L 53 20 L 53 19 L 1 19 Z M 131 19 L 131 108 L 139 108 L 139 108 L 139 77 L 169 77 L 177 74 L 182 69 L 186 57 Q 189 36 181 27 Q 177 21 169 19 L 131 19 Z M 199 19 L 199 108 L 245 108 L 245 102 L 245 101 L 207 101 L 207 20 L 207 19 L 199 19 Z M 253 19 L 253 26 L 261 26 L 261 27 L 261 108 L 262 108 L 269 108 L 269 20 L 269 19 L 253 19 Z M 288 19 L 288 108 L 289 108 L 296 108 L 297 36 L 342 107 L 343 108 L 350 108 L 350 20 L 350 19 L 342 19 L 342 91 L 297 21 L 296 19 L 288 19 Z M 369 19 L 369 108 L 412 108 L 412 102 L 412 101 L 377 101 L 377 63 L 399 63 L 401 58 L 401 55 L 377 55 L 377 26 L 412 26 L 412 20 L 412 19 L 369 19 Z M 491 19 L 491 89 L 496 101 L 504 106 L 515 109 L 528 108 L 538 103 Q 543 99 545 91 L 545 20 L 545 19 L 537 19 L 537 89 L 535 94 Q 531 99 524 101 Q 510 103 505 97 L 499 88 L 499 20 L 499 19 L 491 19 Z M 563 19 L 563 108 L 571 108 L 571 108 L 571 77 L 600 77 L 610 108 L 619 108 L 608 77 L 608 75 L 615 68 L 618 58 L 618 38 L 614 28 Q 610 21 601 19 L 563 19 Z M 634 19 L 659 107 L 660 108 L 670 108 L 695 21 L 695 19 L 686 19 L 665 96 L 643 23 L 643 19 L 634 19 Z M 708 19 L 708 108 L 751 108 L 751 102 L 751 101 L 716 101 L 716 63 L 738 63 L 740 57 L 740 55 L 716 55 L 716 26 L 751 26 L 751 20 L 751 19 L 708 19 Z M 764 19 L 764 56 L 768 67 Q 774 75 787 77 L 800 77 L 813 72 L 813 92 L 811 99 L 805 104 L 808 109 L 814 107 L 819 101 L 821 94 L 821 20 L 821 19 L 813 19 L 813 58 L 811 62 Q 807 68 799 69 Q 785 71 779 65 Q 773 62 772 55 L 772 20 L 772 19 L 764 19 Z " /><path fill="rgb(0,0,0)" stroke="rgb(0,0,0)" stroke-width="1" opacity="0" d="M 998 0 L 1000 0.5 L 1000 126 L 879 125.5 L 999 5.5 L 999 2.5 L 998 0 Z " /><path fill="rgb(0,0,0)" stroke="rgb(0,0,0)" stroke-width="1" opacity="0" d="M 85.5 24 L 93.5 25 L 102 30.5 L 104 33.5 L 106 42.5 L 106 83.5 L 104 92.5 L 99.5 98 L 93.5 101 L 85.5 102 L 75.5 99 L 70 93.5 L 68 89.5 L 68 36.5 L 72 29 L 79.5 25 Q 84.2 26.2 85.5 24 Z " /><path fill="rgb(0,0,0)" stroke="rgb(0,0,0)" stroke-width="1" opacity="0" d="M 139 26 L 163.5 26 Q 171.3 27.2 175 32.5 Q 179.9 40.1 178 54.5 L 175 63.5 L 171.5 67 L 166.5 69 L 139 69 L 139 26 Z " /><path fill="rgb(0,0,0)" stroke="rgb(0,0,0)" stroke-width="1" opacity="0" d="M 571 26 L 595.5 26 L 602.5 28 L 607 32.5 L 610 39.5 L 610 56.5 Q 608.8 64.8 602.5 68 L 599.5 69 L 571 69 L 571 26 Z " /><path fill="rgb(118,211,251)" stroke="rgb(118,211,251)" stroke-width="1" opacity="0.9803921568627451" d="M 131.5 20 L 132 106.5 L 131 106.5 L 131.5 20 Z " /><path fill="rgb(118,211,251)" stroke="rgb(118,211,251)" stroke-width="1" opacity="0.9803921568627451" d="M 349.5 20 L 350 106.5 L 349 106.5 L 349.5 20 Z " /><path fill="rgb(118,211,251)" stroke="rgb(118,211,251)" stroke-width="1" opacity="0.9803921568627451" d="M 68.5 23 L 66.5 26 L 68.5 23 Z " /><path fill="rgb(118,211,251)" stroke="rgb(118,211,251)" stroke-width="1" opacity="0.9803921568627451" d="M 104.5 23 L 106.5 26 L 104.5 23 Z " /><path fill="rgb(118,211,251)" stroke="rgb(118,211,251)" stroke-width="1" opacity="0.9803921568627451" d="M 23.5 25 L 24 106.5 L 23 106.5 L 23.5 25 Z " /><path fill="rgb(118,211,251)" stroke="rgb(118,211,251)" stroke-width="1" opacity="0.9803921568627451" d="M 138.5 25 L 163 25.5 L 138.5 26 L 138.5 25 Z " /><path fill="rgb(118,211,251)" stroke="rgb(118,211,251)" stroke-width="1" opacity="0.9803921568627451" d="M 842.5 26 L 843 99.5 L 842 99.5 L 842.5 26 Z " /><path fill="rgb(118,211,251)" stroke="rgb(118,211,251)" stroke-width="1" opacity="0.9803921568627451" d="M 172.5 28 L 174.5 31 L 172.5 28 Z " /><path fill="rgb(118,211,251)" stroke="rgb(118,211,251)" stroke-width="1" opacity="0.9803921568627451" d="M 106.5 42 L 107 83.5 L 106 83.5 L 106.5 42 Z " /><path fill="rgb(118,211,251)" stroke="rgb(118,211,251)" stroke-width="1" opacity="0.9803921568627451" d="M 112.5 43 L 113 84.5 L 112 84.5 L 112.5 43 Z " /><path fill="rgb(118,211,251)" stroke="rgb(118,211,251)" stroke-width="1" opacity="0.9803921568627451" d="M 174.5 65 L 172.5 68 L 174.5 65 Z " /><path fill="rgb(118,211,251)" stroke="rgb(118,211,251)" stroke-width="1" opacity="0.9803921568627451" d="M 178.5 70 L 177.5 72 L 178.5 70 Z " /><path fill="rgb(118,211,251)" stroke="rgb(118,211,251)" stroke-width="1" opacity="0.9803921568627451" d="M 102.5 96 L 101.5 98 L 102.5 96 Z " /><path fill="rgb(118,211,251)" stroke="rgb(118,211,251)" stroke-width="1" opacity="0.9803921568627451" d="M 65.5 99 L 68.5 103 L 65.5 99 Z " /><path fill="rgb(118,211,251)" stroke="rgb(118,211,251)" stroke-width="1" opacity="0.9803921568627451" d="M 206.5 101 L 243.5 101 L 245 102.5 L 244.5 107 L 244 102 L 206.5 102 L 206.5 101 Z " /><path fill="rgb(118,211,251)" stroke="rgb(118,211,251)" stroke-width="1" opacity="0.9803921568627451" d="M 376.5 101 L 411 101.5 L 376.5 102 L 376.5 101 Z " /><path fill="rgb(5,23,197)" stroke="rgb(5,23,197)" stroke-width="1" opacity="0.3764705882352941" d="M 991.5 0 L 993 0.5 L 873 119.5 L 871.5 123 L 871 121.5 L 991.5 0 Z " /><path fill="rgb(5,23,197)" stroke="rgb(5,23,197)" stroke-width="1" opacity="0.3764705882352941" d="M 996.5 0 Q 998.8 -0.8 998 1.5 L 999 5.5 L 878 125.5 L 998 5.5 L 998 2.5 L 996.5 0 Z " /><path fill="rgb(5,23,197)" stroke="rgb(5,23,197)" stroke-width="1" opacity="0.3764705882352941" d="M 437.5 18 L 442 18.5 L 434.5 20 L 434.5 19 L 437.5 18 Z " /><path fill="rgb(5,23,197)" stroke="rgb(5,23,197)" stroke-width="1" opacity="0.3764705882352941" d="M 453.5 18 L 458 18.5 L 453.5 19 L 453.5 18 Z " /><path fill="rgb(5,23,197)" stroke="rgb(5,23,197)" stroke-width="1" opacity="0.3764705882352941" d="M 491.5 19 L 492 88.5 L 491 88.5 L 491.5 19 Z " /><path fill="rgb(5,23,197)" stroke="rgb(5,23,197)" stroke-width="1" opacity="0.3764705882352941" d="M 537.5 19 L 538 87.5 L 537 87.5 L 537.5 19 Z " /><path fill="rgb(5,23,197)" stroke="rgb(5,23,197)" stroke-width="1" opacity="0.3764705882352941" d="M 544.5 19 L 545 90.5 L 544 90.5 L 544.5 19 Z " /><path fill="rgb(5,23,197)" stroke="rgb(5,23,197)" stroke-width="1" opacity="0.3764705882352941" d="M 563.5 19 L 564 107 L 569.5 107 L 570 106.5 L 570 77.5 L 571.5 76 L 599.5 76 L 602 79.5 L 605 89.5 L 604 89.5 L 600 77 L 571 77 L 571 107.5 L 570.5 108 L 563 108 L 563.5 19 Z " /><path fill="rgb(5,23,197)" stroke="rgb(5,23,197)" stroke-width="1" opacity="0.3764705882352941" d="M 595.5 19 L 601 19.5 L 595.5 20 L 595.5 19 Z " /><path fill="rgb(5,23,197)" stroke="rgb(5,23,197)" stroke-width="1" opacity="0.3764705882352941" d="M 634.5 19 L 635 21.5 L 634 21.5 L 634.5 19 Z " /><path fill="rgb(5,23,197)" stroke="rgb(5,23,197)" stroke-width="1" opacity="0.3764705882352941" d="M 642.5 19 L 643 21.5 L 642 21.5 L 642.5 19 Z " /><path fill="rgb(5,23,197)" stroke="rgb(5,23,197)" stroke-width="1" opacity="0.3764705882352941" d="M 708.5 19 L 709 107 L 749.5 107 Q 750.6 106.9 750 101.5 L 751 101.5 Q 751.8 107.8 750.5 108 L 708 108 L 708.5 19 Z " /><path fill="rgb(5,23,197)" stroke="rgb(5,23,197)" stroke-width="1" opacity="0.3764705882352941" d="M 750.5 19 L 751 25.5 L 750 25.5 L 750.5 19 Z " /><path fill="rgb(5,23,197)" stroke="rgb(5,23,197)" stroke-width="1" opacity="0.3764705882352941" d="M 764.5 19 L 765 55.5 L 764 55.5 L 764.5 19 Z " /><path fill="rgb(5,23,197)" stroke="rgb(5,23,197)" stroke-width="1" opacity="0.3764705882352941" d="M 771.5 19 L 772 51.5 L 771 51.5 L 771.5 19 Z " /><path fill="rgb(5,23,197)" stroke="rgb(5,23,197)" stroke-width="1" opacity="0.3764705882352941" d="M 820.5 19 L 821 93.5 L 820 93.5 L 820.5 19 Z " /><path fill="rgb(5,23,197)" stroke="rgb(5,23,197)" stroke-width="1" opacity="0.3764705882352941" d="M 431.5 20 L 433 20.5 L 423 27.5 L 420.5 32 L 420 30.5 L 426.5 23 L 431.5 20 Z " /><path fill="rgb(5,23,197)" stroke="rgb(5,23,197)" stroke-width="1" opacity="0.3764705882352941" d="M 462.5 20 L 466 21 L 464 29 L 462 28.5 L 465 22.5 L 462.5 20 Z " /><path fill="rgb(5,23,197)" stroke="rgb(5,23,197)" stroke-width="1" opacity="0.3764705882352941" d="M 602.5 20 Q 610.6 21.4 614 27.5 L 617 35.5 L 616 35.5 Q 614.5 27 608.5 23 L 602.5 21 L 602.5 20 Z " /><path fill="rgb(5,23,197)" stroke="rgb(5,23,197)" stroke-width="1" opacity="0.3764705882352941" d="M 685.5 22 L 686 24.5 L 685 24.5 L 685.5 22 Z " /><path fill="rgb(5,23,197)" stroke="rgb(5,23,197)" stroke-width="1" opacity="0.3764705882352941" d="M 693.5 22 L 694 24.5 L 692.5 28 L 692 25.5 L 693.5 22 Z " /><path fill="rgb(5,23,197)" stroke="rgb(5,23,197)" stroke-width="1" opacity="0.3764705882352941" d="M 635.5 23 L 637 28.5 L 636 28.5 L 635.5 23 Z " /><path fill="rgb(5,23,197)" stroke="rgb(5,23,197)" stroke-width="1" opacity="0.3764705882352941" d="M 643.5 23 L 645 28.5 L 644 28.5 L 643.5 23 Z " /><path fill="rgb(5,23,197)" stroke="rgb(5,23,197)" stroke-width="1" opacity="0.3764705882352941" d="M 439.5 25 L 444 25.5 L 439.5 26 L 439.5 25 Z " /><path fill="rgb(5,23,197)" stroke="rgb(5,23,197)" stroke-width="1" opacity="0.3764705882352941" d="M 451.5 25 L 455 25.5 L 451.5 26 L 451.5 25 Z " /><path fill="rgb(5,23,197)" stroke="rgb(5,23,197)" stroke-width="1" opacity="0.3764705882352941" d="M 436.5 26 L 438 26.5 Q 431.4 28.4 428 33.5 L 427.5 35 L 427 33.5 L 436.5 26 Z " /><path fill="rgb(5,23,197)" stroke="rgb(5,23,197)" stroke-width="1" opacity="0.3764705882352941" d="M 456.5 26 L 461 27.5 L 459.5 28 L 456.5 27 L 456.5 26 Z " /><path fill="rgb(5,23,197)" stroke="rgb(5,23,197)" stroke-width="1" opacity="0.3764705882352941" d="M 570.5 26 L 571 69 L 599 69.5 L 570 70 L 570.5 26 Z " /><path fill="rgb(5,23,197)" stroke="rgb(5,23,197)" stroke-width="1" opacity="0.3764705882352941" d="M 596.5 26 L 600 26.5 L 596.5 27 L 596.5 26 Z " /><path fill="rgb(5,23,197)" stroke="rgb(5,23,197)" stroke-width="1" opacity="0.3764705882352941" d="M 715.5 26 L 716 55 L 739.5 55 L 740 56.5 L 738.5 56 L 716.5 56 L 715 54.5 L 715.5 26 Z " /><path fill="rgb(5,23,197)" stroke="rgb(5,23,197)" stroke-width="1" opacity="0.3764705882352941" d="M 603.5 28 Q 608.9 31.1 610 38.5 L 609 38.5 Q 607.4 31.1 603.5 28 Z " /><path fill="rgb(5,23,197)" stroke="rgb(5,23,197)" stroke-width="1" opacity="0.3764705882352941" d="M 683.5 29 L 684 31.5 L 683 31.5 L 683.5 29 Z " /><path fill="rgb(5,23,197)" stroke="rgb(5,23,197)" stroke-width="1" opacity="0.3764705882352941" d="M 691.5 29 L 692 31.5 L 690.5 35 L 690 32.5 L 691.5 29 Z " /><path fill="rgb(5,23,197)" stroke="rgb(5,23,197)" stroke-width="1" opacity="0.3764705882352941" d="M 637.5 30 L 639 35.5 L 638 35.5 L 637.5 30 Z " /><path fill="rgb(5,23,197)" stroke="rgb(5,23,197)" stroke-width="1" opacity="0.3764705882352941" d="M 645.5 30 L 646 32.5 L 645 32.5 L 645.5 30 Z " /><path fill="rgb(5,23,197)" stroke="rgb(5,23,197)" stroke-width="1" opacity="0.3764705882352941" d="M 418.5 36 L 419 42.5 L 418 42.5 L 418.5 36 Z " /><path fill="rgb(5,23,197)" stroke="rgb(5,23,197)" stroke-width="1" opacity="0.3764705882352941" d="M 426.5 36 Q 425.5 47 432.5 50 L 437 52.5 L 435.5 53 L 427 45.5 Q 424.6 42.2 426.5 36 Z " /><path fill="rgb(5,23,197)" stroke="rgb(5,23,197)" stroke-width="1" opacity="0.3764705882352941" d="M 681.5 36 L 682 38.5 L 681 38.5 L 681.5 36 Z " /><path fill="rgb(5,23,197)" stroke="rgb(5,23,197)" stroke-width="1" opacity="0.3764705882352941" d="M 689.5 36 L 690 38.5 L 688.5 42 L 688 39.5 L 689.5 36 Z " /><path fill="rgb(5,23,197)" stroke="rgb(5,23,197)" stroke-width="1" opacity="0.3764705882352941" d="M 617.5 37 L 618 40.5 L 617 40.5 L 617.5 37 Z " /><path fill="rgb(5,23,197)" stroke="rgb(5,23,197)" stroke-width="1" opacity="0.3764705882352941" d="M 647.5 37 L 648 39.5 L 647 39.5 L 647.5 37 Z " /><path fill="rgb(5,23,197)" stroke="rgb(5,23,197)" stroke-width="1" opacity="0.3764705882352941" d="M 610.5 40 L 611 54.5 L 610 54.5 L 610.5 40 Z " /><path fill="rgb(5,23,197)" stroke="rgb(5,23,197)" stroke-width="1" opacity="0.3764705882352941" d="M 640.5 40 L 641 42.5 L 640 42.5 L 640.5 40 Z " /><path fill="rgb(5,23,197)" stroke="rgb(5,23,197)" stroke-width="1" opacity="0.3764705882352941" d="M 679.5 43 L 680 45.5 L 679 45.5 L 679.5 43 Z " /><path fill="rgb(5,23,197)" stroke="rgb(5,23,197)" stroke-width="1" opacity="0.3764705882352941" d="M 687.5 43 L 688 45.5 L 686.5 49 L 686 46.5 L 687.5 43 Z " /><path fill="rgb(5,23,197)" stroke="rgb(5,23,197)" stroke-width="1" opacity="0.3764705882352941" d="M 419.5 44 L 420 46.5 L 419 46.5 L 419.5 44 Z " /><path fill="rgb(5,23,197)" stroke="rgb(5,23,197)" stroke-width="1" opacity="0.3764705882352941" d="M 649.5 44 L 650 46.5 L 649 46.5 L 649.5 44 Z " /><path fill="rgb(5,23,197)" stroke="rgb(5,23,197)" stroke-width="1" opacity="0.3764705882352941" d="M 642.5 47 L 643 49.5 L 642 49.5 L 642.5 47 Z " /><path fill="rgb(5,23,197)" stroke="rgb(5,23,197)" stroke-width="1" opacity="0.3764705882352941" d="M 420.5 48 L 427.5 56 L 437 60.5 L 435.5 61 Q 426.2 57.8 421 50.5 L 420.5 48 Z " /><path fill="rgb(5,23,197)" stroke="rgb(5,23,197)" stroke-width="1" opacity="0.3764705882352941" d="M 677.5 50 L 678 52.5 L 677 52.5 L 677.5 50 Z " /><path fill="rgb(5,23,197)" stroke="rgb(5,23,197)" stroke-width="1" opacity="0.3764705882352941" d="M 685.5 50 L 686 52.5 L 684.5 56 L 684 53.5 L 685.5 50 Z " /><path fill="rgb(5,23,197)" stroke="rgb(5,23,197)" stroke-width="1" opacity="0.3764705882352941" d="M 651.5 51 L 652 53.5 L 651 53.5 L 651.5 51 Z " /><path fill="rgb(5,23,197)" stroke="rgb(5,23,197)" stroke-width="1" opacity="0.3764705882352941" d="M 617.5 52 L 618 57.5 L 617 57.5 L 617.5 52 Z " /><path fill="rgb(5,23,197)" stroke="rgb(5,23,197)" stroke-width="1" opacity="0.3764705882352941" d="M 438.5 53 L 442 54.5 L 440.5 55 L 438.5 53 Z " /><path fill="rgb(5,23,197)" stroke="rgb(5,23,197)" stroke-width="1" opacity="0.3764705882352941" d="M 644.5 54 L 645 56.5 L 644 56.5 L 644.5 54 Z " /><path fill="rgb(5,23,197)" stroke="rgb(5,23,197)" stroke-width="1" opacity="0.3764705882352941" d="M 772.5 55 L 773 57.5 L 772 57.5 L 772.5 55 Z " /><path fill="rgb(5,23,197)" stroke="rgb(5,23,197)" stroke-width="1" opacity="0.3764705882352941" d="M 446.5 56 L 453 58.5 L 451.5 59 L 446.5 57 L 446.5 56 Z " /><path fill="rgb(5,23,197)" stroke="rgb(5,23,197)" stroke-width="1" opacity="0.3764705882352941" d="M 609.5 57 L 610 59.5 L 609 59.5 L 609.5 57 Z " /><path fill="rgb(5,23,197)" stroke="rgb(5,23,197)" stroke-width="1" opacity="0.3764705882352941" d="M 675.5 57 L 676 59.5 L 675 59.5 L 675.5 57 Z " /><path fill="rgb(5,23,197)" stroke="rgb(5,23,197)" stroke-width="1" opacity="0.3764705882352941" d="M 683.5 57 L 684 59.5 L 682.5 63 L 682 60.5 L 683.5 57 Z " /><path fill="rgb(5,23,197)" stroke="rgb(5,23,197)" stroke-width="1" opacity="0.3764705882352941" d="M 653.5 58 L 654 60.5 L 653 60.5 L 653.5 58 Z " /><path fill="rgb(5,23,197)" stroke="rgb(5,23,197)" stroke-width="1" opacity="0.3764705882352941" d="M 765.5 58 Q 767.3 66.7 773.5 71 L 776 72.5 L 774.5 72 L 768 66.5 L 765 60.5 L 765.5 58 Z " /><path fill="rgb(5,23,197)" stroke="rgb(5,23,197)" stroke-width="1" opacity="0.3764705882352941" d="M 812.5 58 L 813 59.5 L 806.5 67 L 803.5 68 L 803.5 67 L 811 61.5 L 812.5 58 Z " /><path fill="rgb(5,23,197)" stroke="rgb(5,23,197)" stroke-width="1" opacity="0.3764705882352941" d="M 454.5 59 L 458 60.5 L 456.5 61 L 454.5 59 Z " /><path fill="rgb(5,23,197)" stroke="rgb(5,23,197)" stroke-width="1" opacity="0.3764705882352941" d="M 616.5 60 L 617 62.5 L 616 62.5 L 616.5 60 Z " /><path fill="rgb(5,23,197)" stroke="rgb(5,23,197)" stroke-width="1" opacity="0.3764705882352941" d="M 438.5 61 L 445 63.5 L 443.5 64 L 438.5 62 L 438.5 61 Z " /><path fill="rgb(5,23,197)" stroke="rgb(5,23,197)" stroke-width="1" opacity="0.3764705882352941" d="M 459.5 61 Q 469.3 63.7 474 71.5 L 476 77.5 L 475 77.5 Q 473.4 68.6 466.5 65 L 459.5 62 L 459.5 61 Z " /><path fill="rgb(5,23,197)" stroke="rgb(5,23,197)" stroke-width="1" opacity="0.3764705882352941" d="M 608.5 61 L 608 62.5 L 603.5 68 L 607 63.5 L 608.5 61 Z " /><path fill="rgb(5,23,197)" stroke="rgb(5,23,197)" stroke-width="1" opacity="0.3764705882352941" d="M 646.5 61 L 647 63.5 L 646 63.5 L 646.5 61 Z " /><path fill="rgb(5,23,197)" stroke="rgb(5,23,197)" stroke-width="1" opacity="0.3764705882352941" d="M 674.5 61 L 675 63.5 L 673.5 67 L 673 64.5 L 674.5 61 Z " /><path fill="rgb(5,23,197)" stroke="rgb(5,23,197)" stroke-width="1" opacity="0.3764705882352941" d="M 737.5 61 L 738 63 L 716 63 L 716 100.5 L 715 100.5 L 715 62 L 736.5 62 L 737.5 61 Z " /><path fill="rgb(5,23,197)" stroke="rgb(5,23,197)" stroke-width="1" opacity="0.3764705882352941" d="M 774.5 61 L 781 66.5 L 779.5 66 L 774.5 61 Z " /><path fill="rgb(5,23,197)" stroke="rgb(5,23,197)" stroke-width="1" opacity="0.3764705882352941" d="M 654.5 62 L 656 67.5 L 655 67.5 L 654.5 62 Z " /><path fill="rgb(5,23,197)" stroke="rgb(5,23,197)" stroke-width="1" opacity="0.3764705882352941" d="M 446.5 64 L 453 66.5 L 451.5 67 L 446.5 65 L 446.5 64 Z " /><path fill="rgb(5,23,197)" stroke="rgb(5,23,197)" stroke-width="1" opacity="0.3764705882352941" d="M 615.5 64 L 616 65.5 L 607.5 76 L 607 73 L 614 67.5 L 615.5 64 Z " /><path fill="rgb(5,23,197)" stroke="rgb(5,23,197)" stroke-width="1" opacity="0.3764705882352941" d="M 681.5 64 L 682 66.5 L 680.5 70 L 680 67.5 L 681.5 64 Z " /><path fill="rgb(5,23,197)" stroke="rgb(5,23,197)" stroke-width="1" opacity="0.3764705882352941" d="M 454.5 67 Q 461.9 69.1 466 74.5 L 468 78.5 L 467 78.5 L 462.5 72 L 454.5 68 L 454.5 67 Z " /><path fill="rgb(5,23,197)" stroke="rgb(5,23,197)" stroke-width="1" opacity="0.3764705882352941" d="M 782.5 67 L 787 68.5 L 784.5 69 L 782.5 67 Z " /><path fill="rgb(5,23,197)" stroke="rgb(5,23,197)" stroke-width="1" opacity="0.3764705882352941" d="M 648.5 68 L 649 70.5 L 648 70.5 L 648.5 68 Z " /><path fill="rgb(5,23,197)" stroke="rgb(5,23,197)" stroke-width="1" opacity="0.3764705882352941" d="M 672.5 68 L 673 70.5 L 671.5 74 L 671 71.5 L 672.5 68 Z " /><path fill="rgb(5,23,197)" stroke="rgb(5,23,197)" stroke-width="1" opacity="0.3764705882352941" d="M 799.5 68 L 802 68.5 L 799.5 69 L 799.5 68 Z " /><path fill="rgb(5,23,197)" stroke="rgb(5,23,197)" stroke-width="1" opacity="0.3764705882352941" d="M 656.5 69 L 658 74.5 L 657 74.5 L 656.5 69 Z " /><path fill="rgb(5,23,197)" stroke="rgb(5,23,197)" stroke-width="1" opacity="0.3764705882352941" d="M 789.5 69 L 797 69.5 L 789.5 70 L 789.5 69 Z " /><path fill="rgb(5,23,197)" stroke="rgb(5,23,197)" stroke-width="1" opacity="0.3764705882352941" d="M 679.5 71 L 680 73.5 L 678.5 77 L 678 74.5 L 679.5 71 Z " /><path fill="rgb(5,23,197)" stroke="rgb(5,23,197)" stroke-width="1" opacity="0.3764705882352941" d="M 810.5 72 L 809.5 74 L 808 73.5 L 810.5 72 Z " /><path fill="rgb(5,23,197)" stroke="rgb(5,23,197)" stroke-width="1" opacity="0.3764705882352941" d="M 650.5 75 L 651 77.5 L 650 77.5 L 650.5 75 Z " /><path fill="rgb(5,23,197)" stroke="rgb(5,23,197)" stroke-width="1" opacity="0.3764705882352941" d="M 670.5 75 L 671 77.5 L 669.5 81 L 669 78.5 L 670.5 75 Z " /><path fill="rgb(5,23,197)" stroke="rgb(5,23,197)" stroke-width="1" opacity="0.3764705882352941" d="M 782.5 75 L 785 75.5 L 782.5 76 L 782.5 75 Z " /><path fill="rgb(5,23,197)" stroke="rgb(5,23,197)" stroke-width="1" opacity="0.3764705882352941" d="M 801.5 75 L 804 75.5 L 801.5 76 L 801.5 75 Z " /><path fill="rgb(5,23,197)" stroke="rgb(5,23,197)" stroke-width="1" opacity="0.3764705882352941" d="M 658.5 76 L 660 81.5 L 659 81.5 L 658.5 76 Z " /><path fill="rgb(5,23,197)" stroke="rgb(5,23,197)" stroke-width="1" opacity="0.3764705882352941" d="M 786.5 76 L 800 76.5 L 786.5 77 L 786.5 76 Z " /><path fill="rgb(5,23,197)" stroke="rgb(5,23,197)" stroke-width="1" opacity="0.3764705882352941" d="M 677.5 78 L 678 80.5 L 676.5 84 L 676 81.5 L 677.5 78 Z " /><path fill="rgb(5,23,197)" stroke="rgb(5,23,197)" stroke-width="1" opacity="0.3764705882352941" d="M 476.5 79 L 477 86.5 L 476 86.5 L 476.5 79 Z " /><path fill="rgb(5,23,197)" stroke="rgb(5,23,197)" stroke-width="1" opacity="0.3764705882352941" d="M 468.5 80 L 469 87.5 L 468 87.5 L 468.5 80 Z " /><path fill="rgb(5,23,197)" stroke="rgb(5,23,197)" stroke-width="1" opacity="0.3764705882352941" d="M 652.5 82 L 653 84.5 L 652 84.5 L 652.5 82 Z " /><path fill="rgb(5,23,197)" stroke="rgb(5,23,197)" stroke-width="1" opacity="0.3764705882352941" d="M 668.5 82 L 669 84.5 L 667.5 88 L 667 85.5 L 668.5 82 Z " /><path fill="rgb(5,23,197)" stroke="rgb(5,23,197)" stroke-width="1" opacity="0.3764705882352941" d="M 660.5 83 L 662 88.5 L 661 88.5 L 660.5 83 Z " /><path fill="rgb(5,23,197)" stroke="rgb(5,23,197)" stroke-width="1" opacity="0.3764705882352941" d="M 416 84 L 424 84.5 L 417 85 L 416.5 89 L 416 84 Z " /><path fill="rgb(5,23,197)" stroke="rgb(5,23,197)" stroke-width="1" opacity="0.3764705882352941" d="M 675.5 85 L 676 87.5 L 674.5 91 L 674 88.5 L 675.5 85 Z " /><path fill="rgb(5,23,197)" stroke="rgb(5,23,197)" stroke-width="1" opacity="0.3764705882352941" d="M 424.5 87 Q 426.4 93.6 431.5 97 L 436 99.5 L 434.5 100 L 426 92.5 L 424.5 87 Z " /><path fill="rgb(5,23,197)" stroke="rgb(5,23,197)" stroke-width="1" opacity="0.3764705882352941" d="M 499.5 88 L 504.5 97 L 512 100.5 L 509.5 101 L 502 95.5 Q 497.8 92.9 499.5 88 Z " /><path fill="rgb(5,23,197)" stroke="rgb(5,23,197)" stroke-width="1" opacity="0.3764705882352941" d="M 475.5 89 L 476 91.5 L 475 91.5 L 475.5 89 Z " /><path fill="rgb(5,23,197)" stroke="rgb(5,23,197)" stroke-width="1" opacity="0.3764705882352941" d="M 536.5 89 L 537 91.5 L 535 92.5 L 536.5 89 Z " /><path fill="rgb(5,23,197)" stroke="rgb(5,23,197)" stroke-width="1" opacity="0.3764705882352941" d="M 654.5 89 L 656 94.5 L 655 94.5 L 654.5 89 Z " /><path fill="rgb(5,23,197)" stroke="rgb(5,23,197)" stroke-width="1" opacity="0.3764705882352941" d="M 666.5 89 L 667 91.5 L 666 91.5 L 666.5 89 Z " /><path fill="rgb(5,23,197)" stroke="rgb(5,23,197)" stroke-width="1" opacity="0.3764705882352941" d="M 492.5 90 L 493 92.5 L 492 92.5 L 492.5 90 Z " /><path fill="rgb(5,23,197)" stroke="rgb(5,23,197)" stroke-width="1" opacity="0.3764705882352941" d="M 662.5 90 L 665 97.5 L 664 97.5 L 662.5 90 Z " /><path fill="rgb(5,23,197)" stroke="rgb(5,23,197)" stroke-width="1" opacity="0.3764705882352941" d="M 466.5 92 L 466 93.5 L 462.5 98 L 454.5 101 L 454.5 100 Q 461.6 99.1 465 94.5 L 466.5 92 Z " /><path fill="rgb(5,23,197)" stroke="rgb(5,23,197)" stroke-width="1" opacity="0.3764705882352941" d="M 543.5 92 L 544 94.5 L 541.5 98 L 542 96.5 L 543.5 92 Z " /><path fill="rgb(5,23,197)" stroke="rgb(5,23,197)" stroke-width="1" opacity="0.3764705882352941" d="M 673.5 92 L 674 94.5 L 672.5 98 L 672 95.5 L 673.5 92 Z " /><path fill="rgb(5,23,197)" stroke="rgb(5,23,197)" stroke-width="1" opacity="0.3764705882352941" d="M 812.5 92 L 813 95.5 L 812 95.5 L 812.5 92 Z " /><path fill="rgb(5,23,197)" stroke="rgb(5,23,197)" stroke-width="1" opacity="0.3764705882352941" d="M 418.5 93 L 426.5 103 L 431 105.5 L 429.5 106 L 420 97.5 L 418.5 93 Z " /><path fill="rgb(5,23,197)" stroke="rgb(5,23,197)" stroke-width="1" opacity="0.3764705882352941" d="M 474.5 93 L 475 94.5 L 467.5 104 Q 464 107.5 457.5 108 L 457.5 107 Q 467.5 105.5 472 98.5 L 474.5 93 Z " /><path fill="rgb(5,23,197)" stroke="rgb(5,23,197)" stroke-width="1" opacity="0.3764705882352941" d="M 493.5 94 Q 495.7 100.8 501.5 104 L 505 105.5 L 503.5 106 L 496 100.5 L 493 95.5 L 493.5 94 Z " /><path fill="rgb(5,23,197)" stroke="rgb(5,23,197)" stroke-width="1" opacity="0.3764705882352941" d="M 534.5 94 L 530.5 99 Q 525 103.5 513.5 102 L 513.5 101 Q 529.4 102.9 534.5 94 Z " /><path fill="rgb(5,23,197)" stroke="rgb(5,23,197)" stroke-width="1" opacity="0.3764705882352941" d="M 819.5 95 L 820 97.5 L 819 97.5 L 819.5 95 Z " /><path fill="rgb(5,23,197)" stroke="rgb(5,23,197)" stroke-width="1" opacity="0.3764705882352941" d="M 656.5 96 L 658 101.5 L 657 101.5 L 656.5 96 Z " /><path fill="rgb(5,23,197)" stroke="rgb(5,23,197)" stroke-width="1" opacity="0.3764705882352941" d="M 540.5 99 L 537.5 103 L 540.5 99 Z " /><path fill="rgb(5,23,197)" stroke="rgb(5,23,197)" stroke-width="1" opacity="0.3764705882352941" d="M 671.5 99 L 672 101.5 L 670.5 105 L 670 102.5 L 671.5 99 Z " /><path fill="rgb(5,23,197)" stroke="rgb(5,23,197)" stroke-width="1" opacity="0.3764705882352941" d="M 810.5 99 L 807.5 103 Q 805.3 102.3 806 104.5 L 805 104.5 L 806.5 102 L 810.5 99 Z " /><path fill="rgb(5,23,197)" stroke="rgb(5,23,197)" stroke-width="1" opacity="0.3764705882352941" d="M 818.5 99 L 819 100.5 L 813.5 107 L 810.5 108 L 810.5 107 L 816 103.5 L 818.5 99 Z " /><path fill="rgb(5,23,197)" stroke="rgb(5,23,197)" stroke-width="1" opacity="0.3764705882352941" d="M 440.5 101 L 453 101.5 L 440.5 102 L 440.5 101 Z " /><path fill="rgb(5,23,197)" stroke="rgb(5,23,197)" stroke-width="1" opacity="0.3764705882352941" d="M 535.5 103 L 534.5 105 L 529.5 107 L 529.5 106 L 535.5 103 Z " /><path fill="rgb(5,23,197)" stroke="rgb(5,23,197)" stroke-width="1" opacity="0.3764705882352941" d="M 658.5 103 L 660.5 107 L 668.5 107 L 669.5 106 L 670 108 L 659.5 108 L 659 106.5 L 658.5 103 Z " /><path fill="rgb(5,23,197)" stroke="rgb(5,23,197)" stroke-width="1" opacity="0.3764705882352941" d="M 432.5 106 L 437 107.5 L 434.5 108 L 432.5 106 Z " /><path fill="rgb(5,23,197)" stroke="rgb(5,23,197)" stroke-width="1" opacity="0.3764705882352941" d="M 610.5 106 L 619 107.5 L 610 108 L 610.5 106 Z " /><path fill="rgb(5,23,197)" stroke="rgb(5,23,197)" stroke-width="1" opacity="0.3764705882352941" d="M 806.5 106 L 807 108 L 809 108.5 L 807.5 109 L 806.5 106 Z " /><path fill="rgb(5,23,197)" stroke="rgb(5,23,197)" stroke-width="1" opacity="0.3764705882352941" d="M 509.5 107 L 512 107.5 L 509.5 108 L 509.5 107 Z " /><path fill="rgb(5,23,197)" stroke="rgb(5,23,197)" stroke-width="1" opacity="0.3764705882352941" d="M 524.5 107 L 528 107.5 L 524.5 108 L 524.5 107 Z " /><path fill="rgb(5,23,197)" stroke="rgb(5,23,197)" stroke-width="1" opacity="0.3764705882352941" d="M 438.5 108 L 446 108.5 L 438.5 109 L 438.5 108 Z " /><path fill="rgb(5,23,197)" stroke="rgb(5,23,197)" stroke-width="1" opacity="0.3764705882352941" d="M 447.5 108 L 455 108.5 L 447.5 109 L 447.5 108 Z " /><path fill="rgb(5,23,197)" stroke="rgb(5,23,197)" stroke-width="1" opacity="0.3764705882352941" d="M 514.5 108 L 522 108.5 L 514.5 109 L 514.5 108 Z " /><path fill="rgb(5,23,197)" stroke="rgb(5,23,197)" stroke-width="1" opacity="0.3764705882352941" d="M 872.5 124 L 873.5 126 Q 870.7 126.7 872.5 124 Z " /><path fill="rgb(119,212,252)" stroke="rgb(119,212,252)" stroke-width="1" opacity="1" d="M 80.5 18 Q 102.1 15.9 109 28.5 L 112 36.5 L 112 91.5 L 105.5 102 L 92.5 108 L 80.5 108 Q 69.4 105.6 64 97.5 L 61 90.5 L 61 36.5 Q 63 26.5 70.5 22 L 80.5 18 Z M 87 23 L 75 26 Q 69 29 67 37 L 67 91 L 69 95 L 77 101 L 87 103 L 97 101 L 102 98 L 105 94 L 107 84 L 107 43 Q 105 41 106 36 L 104 32 L 97 25 L 87 23 Z " /><path fill="rgb(119,212,252)" stroke="rgb(119,212,252)" stroke-width="1" opacity="1" d="M 845.5 18 L 849 20.5 L 850 24.5 L 850 101.5 L 849 105.5 L 846.5 108 L 844 106.5 L 843 104.5 L 843 21.5 L 845.5 18 Z " /><path fill="rgb(119,212,252)" stroke="rgb(119,212,252)" stroke-width="1" opacity="1" d="M 2 20 L 51.5 20 L 52 25 L 30 25 L 30 106.5 L 29.5 107 L 24 107 L 24 25.5 L 23.5 25 L 2.5 25 L 2 20 Z " /><path fill="rgb(119,212,252)" stroke="rgb(119,212,252)" stroke-width="1" opacity="1" d="M 132 20 L 167.5 20 Q 176 21.5 180 27.5 Q 187.4 36.6 185 55.5 Q 182.8 56.7 184 61.5 L 181 67.5 L 175.5 73 L 168.5 76 L 138 76 L 138 106.5 L 137.5 107 L 132 107 L 132 20 Z M 138 25 L 138 70 L 168 70 L 173 68 L 177 63 L 179 55 Q 181 39 175 31 L 169 26 Q 164 27 163 25 L 138 25 Z " /><path fill="rgb(119,212,252)" stroke="rgb(119,212,252)" stroke-width="1" opacity="1" d="M 200 20 L 205.5 20 L 206 20.5 L 206 102 L 243.5 102 L 244 107 L 200 107 L 200 20 Z " /><path fill="rgb(119,212,252)" stroke="rgb(119,212,252)" stroke-width="1" opacity="1" d="M 254 20 L 267.5 20 L 268 20.5 L 268 107 L 262.5 107 L 262 106.5 L 262 25.5 L 261.5 25 L 254 25 L 254 20 Z " /><path fill="rgb(119,212,252)" stroke="rgb(119,212,252)" stroke-width="1" opacity="1" d="M 289 20 Q 294.4 18.5 296 21.5 L 342.5 95 L 343 20 L 348.5 20 L 349 20.5 L 349 107 L 343.5 107 L 343 105.5 L 295.5 32 L 295 107 L 289.5 107 L 289 106.5 L 289 20 Z " /><path fill="rgb(119,212,252)" stroke="rgb(119,212,252)" stroke-width="1" opacity="1" d="M 370 20 L 410.5 20 L 411 25 L 376 25 L 376 56 L 399.5 56 L 400 57.5 L 397.5 62 L 376 62 L 376 102 L 410.5 102 L 411 107 L 370 107 L 370 20 Z " /><path fill="rgb(118,211,251)" stroke="rgb(118,211,251)" stroke-width="1" opacity="0.8705882352941177" d="M 83.5 17 L 90 17.5 L 83.5 18 L 83.5 17 Z " /><path fill="rgb(118,211,251)" stroke="rgb(118,211,251)" stroke-width="1" opacity="0.8705882352941177" d="M 845.5 17 L 847 17.5 L 844.5 19 L 845.5 17 Z " /><path fill="rgb(118,211,251)" stroke="rgb(118,211,251)" stroke-width="1" opacity="0.8705882352941177" d="M 2.5 19 L 52 19.5 L 2.5 20 L 2.5 19 Z " /><path fill="rgb(118,211,251)" stroke="rgb(118,211,251)" stroke-width="1" opacity="0.8705882352941177" d="M 131.5 19 L 165 19.5 L 131.5 20 L 131.5 19 Z " /><path fill="rgb(118,211,251)" stroke="rgb(118,211,251)" stroke-width="1" opacity="0.8705882352941177" d="M 200.5 19 Q 205.8 17.8 207 20.5 L 206.5 101 L 206 20 L 200.5 20 L 200.5 19 Z " /><path fill="rgb(118,211,251)" stroke="rgb(118,211,251)" stroke-width="1" opacity="0.8705882352941177" d="M 254.5 19 L 268.5 19 L 269 19.5 L 269 106.5 L 268 106.5 L 268 20.5 L 267.5 20 L 254 20 L 253.5 25 L 253 20.5 L 254.5 19 Z " /><path fill="rgb(118,211,251)" stroke="rgb(118,211,251)" stroke-width="1" opacity="0.8705882352941177" d="M 288 19 Q 294.1 17.3 296 20.5 L 294.5 20 Q 289.1 19.4 289 20.5 L 289 106.5 L 288 106.5 L 288 19 Z " /><path fill="rgb(118,211,251)" stroke="rgb(118,211,251)" stroke-width="1" opacity="0.8705882352941177" d="M 343.5 19 L 350 19.5 L 343.5 20 L 343.5 19 Z " /><path fill="rgb(118,211,251)" stroke="rgb(118,211,251)" stroke-width="1" opacity="0.8705882352941177" d="M 370.5 19 L 411.5 19 L 412 19.5 L 412 26 L 377 26 L 377 55 L 400 55.5 L 377.5 56 L 376 54.5 L 376 26.5 L 377.5 25 L 411 25 L 410.5 20 L 370.5 20 L 370.5 19 Z " /><path fill="rgb(118,211,251)" stroke="rgb(118,211,251)" stroke-width="1" opacity="0.8705882352941177" d="M 102.5 21 L 103.5 23 L 102.5 21 Z " /><path fill="rgb(118,211,251)" stroke="rgb(118,211,251)" stroke-width="1" opacity="0.8705882352941177" d="M 842.5 23 L 843 25.5 L 842 25.5 L 842.5 23 Z " /><path fill="rgb(118,211,251)" stroke="rgb(118,211,251)" stroke-width="1" opacity="0.8705882352941177" d="M 177.5 24 L 179.5 27 L 177.5 24 Z " /><path fill="rgb(118,211,251)" stroke="rgb(118,211,251)" stroke-width="1" opacity="0.8705882352941177" d="M 2.5 25 L 23 25.5 L 2.5 26 L 2.5 25 Z " /><path fill="rgb(118,211,251)" stroke="rgb(118,211,251)" stroke-width="1" opacity="0.8705882352941177" d="M 30.5 25 L 52 25.5 L 30.5 26 L 30.5 25 Z " /><path fill="rgb(118,211,251)" stroke="rgb(118,211,251)" stroke-width="1" opacity="0.8705882352941177" d="M 257.5 25 L 262 25.5 L 257.5 26 L 257.5 25 Z " /><path fill="rgb(118,211,251)" stroke="rgb(118,211,251)" stroke-width="1" opacity="0.8705882352941177" d="M 65.5 26 L 64.5 28 L 65.5 26 Z " /><path fill="rgb(118,211,251)" stroke="rgb(118,211,251)" stroke-width="1" opacity="0.8705882352941177" d="M 107.5 26 L 108.5 28 L 107.5 26 Z " /><path fill="rgb(118,211,251)" stroke="rgb(118,211,251)" stroke-width="1" opacity="0.8705882352941177" d="M 73.5 27 L 72.5 29 L 73.5 27 Z " /><path fill="rgb(118,211,251)" stroke="rgb(118,211,251)" stroke-width="1" opacity="0.8705882352941177" d="M 70.5 30 L 69.5 32 L 70.5 30 Z " /><path fill="rgb(118,211,251)" stroke="rgb(118,211,251)" stroke-width="1" opacity="0.8705882352941177" d="M 112.5 38 L 113 42.5 L 112 42.5 L 112.5 38 Z " /><path fill="rgb(118,211,251)" stroke="rgb(118,211,251)" stroke-width="1" opacity="0.8705882352941177" d="M 60.5 39 L 61 88.5 L 60 88.5 L 60.5 39 Z " /><path fill="rgb(118,211,251)" stroke="rgb(118,211,251)" stroke-width="1" opacity="0.8705882352941177" d="M 178.5 40 L 179 43.5 L 178 43.5 L 178.5 40 Z " /><path fill="rgb(118,211,251)" stroke="rgb(118,211,251)" stroke-width="1" opacity="0.8705882352941177" d="M 300.5 40 L 301.5 42 L 300.5 40 Z " /><path fill="rgb(118,211,251)" stroke="rgb(118,211,251)" stroke-width="1" opacity="0.8705882352941177" d="M 185.5 44 L 186 48.5 L 185 48.5 L 185.5 44 Z " /><path fill="rgb(118,211,251)" stroke="rgb(118,211,251)" stroke-width="1" opacity="0.8705882352941177" d="M 178.5 51 L 179 54.5 L 178 54.5 L 178.5 51 Z " /><path fill="rgb(118,211,251)" stroke="rgb(118,211,251)" stroke-width="1" opacity="0.8705882352941177" d="M 307.5 51 L 308.5 53 L 307.5 51 Z " /><path fill="rgb(118,211,251)" stroke="rgb(118,211,251)" stroke-width="1" opacity="0.8705882352941177" d="M 314.5 62 L 315.5 64 L 314.5 62 Z " /><path fill="rgb(118,211,251)" stroke="rgb(118,211,251)" stroke-width="1" opacity="0.8705882352941177" d="M 376.5 63 L 377 100.5 L 376 100.5 L 376.5 63 Z " /><path fill="rgb(118,211,251)" stroke="rgb(118,211,251)" stroke-width="1" opacity="0.8705882352941177" d="M 180.5 68 L 179.5 70 L 180.5 68 Z " /><path fill="rgb(118,211,251)" stroke="rgb(118,211,251)" stroke-width="1" opacity="0.8705882352941177" d="M 176.5 72 L 175.5 74 L 176.5 72 Z " /><path fill="rgb(118,211,251)" stroke="rgb(118,211,251)" stroke-width="1" opacity="0.8705882352941177" d="M 321.5 73 L 322.5 75 L 321.5 73 Z " /><path fill="rgb(118,211,251)" stroke="rgb(118,211,251)" stroke-width="1" opacity="0.8705882352941177" d="M 328.5 84 L 329.5 86 L 328.5 84 Z " /><path fill="rgb(118,211,251)" stroke="rgb(118,211,251)" stroke-width="1" opacity="0.8705882352941177" d="M 112.5 85 L 113 88.5 L 112 88.5 L 112.5 85 Z " /><path fill="rgb(118,211,251)" stroke="rgb(118,211,251)" stroke-width="1" opacity="0.8705882352941177" d="M 69.5 94 L 73.5 99 L 69.5 94 Z " /><path fill="rgb(118,211,251)" stroke="rgb(118,211,251)" stroke-width="1" opacity="0.8705882352941177" d="M 335.5 95 L 336.5 97 L 335.5 95 Z " /><path fill="rgb(118,211,251)" stroke="rgb(118,211,251)" stroke-width="1" opacity="0.8705882352941177" d="M 842.5 100 L 843 102.5 L 842 102.5 L 842.5 100 Z " /><path fill="rgb(118,211,251)" stroke="rgb(118,211,251)" stroke-width="1" opacity="0.8705882352941177" d="M 411.5 102 L 412 106.5 L 411 106.5 L 411.5 102 Z " /><path fill="rgb(118,211,251)" stroke="rgb(118,211,251)" stroke-width="1" opacity="0.8705882352941177" d="M 844.5 107 L 847 108.5 L 845.5 109 L 844.5 107 Z " /><path fill="rgb(118,211,251)" stroke="rgb(118,211,251)" stroke-width="1" opacity="0.8705882352941177" d="M 84.5 108 L 90 108.5 L 84.5 109 L 84.5 108 Z " /></svg>